<?xml version="1.0" ?><!DOCTYPE svg  PUBLIC '-//W3C//DTD SVG 1.1//EN'  'http://www.w3.org/Graphics/SVG/1.1/DTD/svg11.dtd'><svg enable-background="new 0 0 32 32" height="32px" version="1.1" viewBox="0 0 32 32" width="32px" xml:space="preserve" xmlns="http://www.w3.org/2000/svg" xmlns:xlink="http://www.w3.org/1999/xlink"><g id="Google_Ads_AdWords"><g><path d="M2.066,23.314c-0.082,0-0.166-0.021-0.242-0.063c-0.242-0.135-0.329-0.438-0.194-0.681L9.278,8.803    c0.134-0.24,0.439-0.326,0.68-0.194c0.242,0.135,0.329,0.438,0.194,0.681L2.503,23.058C2.412,23.222,2.242,23.314,2.066,23.314z" fill="#263238"/><path d="M9.933,27.686c-0.082,0-0.166-0.021-0.242-0.063c-0.242-0.135-0.329-0.438-0.194-0.681l4.796-8.634    c0.133-0.24,0.438-0.326,0.68-0.194c0.242,0.135,0.329,0.438,0.194,0.681l-4.796,8.634C10.279,27.593,10.109,27.686,9.933,27.686z    " fill="#263238"/></g><g><g><g><path d="M15.709,15.761L9.497,26.942c-0.705,1.27-2.046,2.059-3.5,2.059c-0.674,0-1.345-0.175-1.939-0.505      c-1.928-1.07-2.625-3.511-1.554-5.438l7.578-13.639c0.134-0.241,0.047-0.546-0.194-0.681c-0.24-0.133-0.545-0.046-0.68,0.194      L1.629,22.571c-1.339,2.41-0.468,5.46,1.942,6.8c0.742,0.412,1.58,0.63,2.424,0.63c1.817,0,3.493-0.985,4.375-2.572      l5.921-10.658L15.709,15.761z" fill="#263238"/></g></g><g><path d="M6,30c-2.757,0-5-2.243-5-5s2.243-5,5-5s5,2.243,5,5S8.757,30,6,30z M6,21c-2.206,0-4,1.794-4,4     s1.794,4,4,4s4-1.794,4-4S8.206,21,6,21z" fill="#263238"/></g><g><g><path d="M26.004,30.001c-1.817,0-3.493-0.985-4.375-2.572l-10-18c-1.339-2.41-0.468-5.46,1.942-6.8      c0.742-0.412,1.581-0.631,2.425-0.631c1.816,0,3.492,0.986,4.374,2.573l10,18c1.339,2.41,0.468,5.46-1.942,6.8      C27.687,29.783,26.848,30.001,26.004,30.001z M15.997,2.998c-0.675,0-1.345,0.175-1.94,0.506      c-1.928,1.07-2.625,3.511-1.554,5.438l10,18c0.705,1.27,2.046,2.059,3.5,2.059c0.674,0,1.345-0.175,1.939-0.505      c1.928-1.07,2.625-3.511,1.554-5.438l-10-18C18.792,3.787,17.451,2.998,15.997,2.998z" fill="#263238"/></g></g></g></g></svg>