<svg width="65" height="65" xmlns="http://www.w3.org/2000/svg">
 <style type="text/css">.st0{fill:#1C1F20;}</style>

 <g>
  <title>background</title>
  <rect fill="none" id="canvas_background" height="602" width="802" y="-1" x="-1"/>
 </g>
 <g>
  <title>Layer 1</title>
  <g id="svg_1">
   <path fill="#000000" id="svg_2" d="m58.5,62.8l-9,0c-0.4,0 -0.8,0.3 -0.8,0.8s0.3,0.8 0.8,0.8l9,0c0.4,0 0.8,-0.3 0.8,-0.8s-0.4,-0.8 -0.8,-0.8z" class="st0"/>
   <path fill="#000000" id="svg_3" d="m63.5,62.8l-1,0c-0.4,0 -0.8,0.3 -0.8,0.8s0.3,0.8 0.8,0.8l1,0c0.4,0 0.8,-0.3 0.8,-0.8s-0.4,-0.8 -0.8,-0.8z" class="st0"/>
   <path fill="#000000" id="svg_4" d="m9.5,60.8l-1.2,0l0,-1.3c0,-0.4 -0.3,-0.8 -0.8,-0.8s-0.8,0.3 -0.8,0.8l0,1.3l-1.2,0c-0.4,0 -0.8,0.3 -0.8,0.8s0.3,0.8 0.8,0.8l1.3,0l0,1.3c0,0.4 0.3,0.8 0.8,0.8s0.8,-0.3 0.8,-0.8l0,-1.3l1.3,0c0.4,0 0.8,-0.3 0.8,-0.8s-0.6,-0.8 -1,-0.8z" class="st0"/>
   <path fill="#000000" id="svg_5" d="m63.5,0.8l-62,0c-0.4,0 -0.8,0.3 -0.8,0.8l0,52c0,0.4 0.3,0.8 0.8,0.8l9.4,0c0.4,0 0.8,-0.3 0.8,-0.8s-0.3,-0.8 -0.8,-0.8l-8.6,0l0,-42.5l60.5,0l0,42.5l-8.7,0c-0.4,0 -0.8,0.3 -0.8,0.8s0.3,0.8 0.8,0.8l9.4,0c0.4,0 0.8,-0.3 0.8,-0.8l0,-52c0,-0.5 -0.4,-0.8 -0.8,-0.8zm-61.2,8l0,-6.5l60.5,0l0,6.5l-60.5,0z" class="st0"/>
   <path fill="#000000" id="svg_6" d="m58.5,49.3c0.4,0 0.8,-0.3 0.8,-0.8l0,-34c0,-0.4 -0.3,-0.8 -0.8,-0.8l-52,0c-0.4,0 -0.8,0.3 -0.8,0.8l0,34c0,0.4 0.3,0.8 0.8,0.8s0.8,-0.3 0.8,-0.8l0,-33.2l50.5,0l0,33.3c0,0.3 0.3,0.7 0.7,0.7z" class="st0"/>
   <circle fill="#000000" id="svg_7" r="1" cy="5.5" cx="7.5" class="st0"/>
   <circle fill="#000000" id="svg_8" r="1" cy="5.5" cx="15.5" class="st0"/>
   <circle fill="#000000" id="svg_9" r="1" cy="5.5" cx="11.5" class="st0"/>
   <path fill="#000000" id="svg_10" d="m50.7,54l-2.7,-2.7c0.7,-1.3 1.3,-2.7 1.7,-4.1l3.8,0c0.4,0 0.8,-0.3 0.8,-0.8l0,-7.9c0,-0.4 -0.3,-0.8 -0.8,-0.8l-3.8,0c-0.4,-1.4 -1,-2.8 -1.7,-4.1l2.7,-2.7c0.3,-0.3 0.3,-0.8 0,-1.1l-5.6,-5.6c-0.3,-0.3 -0.8,-0.3 -1.1,0l-2.7,2.8c-1.3,-0.7 -2.7,-1.3 -4.1,-1.7l0,-3.8c0,-0.4 -0.3,-0.8 -0.8,-0.8l-7.9,0c-0.4,0 -0.8,0.3 -0.8,0.8l0,3.8c-1.4,0.4 -2.8,1 -4.1,1.7l-2.6,-2.7c-0.3,-0.3 -0.8,-0.3 -1.1,0l-5.6,5.6c-0.3,0.3 -0.3,0.8 0,1.1l2.7,2.7c-0.7,1.3 -1.3,2.7 -1.7,4.1l-3.8,0c-0.4,0 -0.8,0.3 -0.8,0.8l0,7.9c0,0.4 0.3,0.8 0.8,0.8l3.8,0c0.4,1.4 1,2.8 1.7,4.1l-2.7,2.6c-0.3,0.3 -0.3,0.8 0,1.1l5.6,5.6c0.3,0.3 0.8,0.3 1.1,0l2.7,-2.7c1.3,0.7 2.7,1.3 4.1,1.7l0,3.8c0,0.4 0.3,0.8 0.8,0.8l7.9,0c0.4,0 0.8,-0.3 0.8,-0.8l0,-3.8c1.4,-0.4 2.8,-1 4.1,-1.7l2.7,2.7c0.3,0.3 0.8,0.3 1.1,0l5.6,-5.6c0.2,-0.3 0.2,-0.8 -0.1,-1.1zm-6.1,5.1l-2.6,-2.6c-0.2,-0.2 -0.6,-0.3 -0.9,-0.1c-1.5,0.9 -3.1,1.6 -4.8,2c-0.3,0.1 -0.6,0.4 -0.6,0.7l0,3.7l-6.4,0l0,-3.7c0,-0.3 -0.2,-0.6 -0.6,-0.7c-1.7,-0.4 -3.3,-1.1 -4.8,-2c-0.3,-0.2 -0.7,-0.1 -0.9,0.1l-2.6,2.6l-4.5,-4.5l2.6,-2.6c0.2,-0.2 0.3,-0.6 0.1,-0.9c-0.9,-1.5 -1.6,-3.1 -2,-4.8c-0.1,-0.3 -0.4,-0.6 -0.7,-0.6l-3.7,0l0,-6.4l3.7,0c0.3,0 0.6,-0.2 0.7,-0.6c0.4,-1.7 1.1,-3.3 2,-4.8c0.2,-0.3 0.1,-0.7 -0.1,-0.9l-2.6,-2.6l4.5,-4.5l2.6,2.6c0.2,0.2 0.6,0.3 0.9,0.1c1.5,-0.9 3.1,-1.6 4.8,-2c0.3,-0.1 0.6,-0.4 0.6,-0.7l0,-3.7l6.4,0l0,3.7c0,0.3 0.2,0.6 0.6,0.7c1.7,0.4 3.3,1.1 4.8,2c0.3,0.2 0.7,0.1 0.9,-0.1l2.6,-2.6l4.5,4.5l-2.6,2.6c-0.2,0.2 -0.3,0.6 -0.1,0.9c0.9,1.5 1.6,3.1 2,4.8c0.1,0.3 0.4,0.6 0.7,0.6l3.7,0l0,6.4l-3.7,0c-0.3,0 -0.6,0.2 -0.7,0.6c-0.4,1.7 -1.1,3.3 -2,4.8c-0.2,0.3 -0.1,0.7 0.1,0.9l2.6,2.6l-4.5,4.5z" class="st0"/>
   <path fill="#000000" id="svg_11" d="m32.5,31.3c-6.2,0 -11.3,5 -11.3,11.3s5,11.3 11.3,11.3s11.3,-5 11.3,-11.3s-5.1,-11.3 -11.3,-11.3zm0,21c-5.4,0 -9.8,-4.4 -9.8,-9.8s4.4,-9.8 9.8,-9.8s9.8,4.4 9.8,9.8s-4.4,9.8 -9.8,9.8z" class="st0"/>
  </g>
 </g>
</svg>