<svg width="1009.9912" height="1010" xmlns="http://www.w3.org/2000/svg">

 <g>
  <title>background</title>
  <rect fill="none" id="canvas_background" height="602" width="802" y="-1" x="-1"/>
 </g>
 <g>
  <title>Layer 1</title>
  <g id="svg_1">
   <g id="magnifier-magnifier">
    <g id="svg_2">
     <path id="svg_3" d="m90.5801,1010c-24.1909,0 -46.9307,-9.3965 -64.0391,-26.5049c-17.1255,-17.1435 -26.541,-39.8828 -26.541,-64.0928c0,-24.1738 9.4155,-46.9482 26.541,-64.0576l183.1333,-183.1318c17.1079,-17.1084 39.8472,-26.541 64.0391,-26.541c24.1919,0 46.9482,9.4326 64.0747,26.5049c35.3105,35.3642 35.292,92.8574 0,128.1494l-183.1328,183.1689c-17.126,17.1084 -39.8828,26.5049 -64.0752,26.5049l0,0zm183.1333,-327.6016c-14.3828,0 -27.9043,5.5957 -38.0723,15.7813l-183.1323,183.1328c-10.1865,10.1865 -15.7813,23.708 -15.7813,38.0898c0,14.3829 5.5948,27.9405 15.7813,38.125c20.3364,20.337 55.8076,20.337 76.1797,-0.0341l183.1328,-183.1339c20.9814,-20.9814 20.9814,-55.162 -0.0186,-76.1797c-10.1674,-10.1855 -23.6889,-15.7812 -38.0893,-15.7812l0,0z" fill="#000000"/>
    </g>
    <g id="svg_4">
     <path id="svg_5" d="m343.2393,736.1973c-1.5957,0 -3.2095,-0.2149 -4.8057,-0.6447c-6.3486,-1.7226 -11.2979,-6.707 -12.9658,-13.0556c-2.4922,-9.5752 -7.1016,-17.7538 -13.6651,-24.3526c-6.5273,-6.4922 -14.7226,-11.0829 -24.3349,-13.6299c-6.3482,-1.6855 -11.3154,-6.6357 -13.0371,-12.9843c-1.7036,-6.3477 0.1074,-13.126 4.7524,-17.752l58.7485,-58.75c3.6587,-3.6943 8.6973,-5.667 13.898,-5.3789c5.1831,0.2861 10.0244,2.7256 13.3066,6.7422c14.4717,17.6816 30.7735,34.001 48.4727,48.4551c4.0176,3.2998 6.456,8.1416 6.7251,13.3066c0.2515,5.2002 -1.6856,10.2217 -5.3623,13.916l-58.7485,58.7491c-3.4791,3.4786 -8.1773,5.379 -12.9839,5.379l0,0zm-19.3311,-75.211c5.021,3.2646 9.6655,6.9942 13.8618,11.1905c4.2144,4.2324 7.98,8.8945 11.2442,13.8808l26.021,-26.0029c-8.7515,-7.9629 -17.126,-16.3555 -25.1065,-25.1065l-26.0205,26.0381l0,0z" fill="#000000"/>
    </g>
    <g id="svg_6">
     <path id="svg_7" d="m630.4912,759.0088c-209.2607,0 -379.4995,-170.2568 -379.4995,-379.5088c0,-209.2612 170.2388,-379.5 379.4995,-379.5s379.5,170.2388 379.5,379.5c0,209.252 -170.2392,379.5088 -379.5,379.5088l0,0zm0,-722.2817c-188.9956,0 -342.7724,153.7758 -342.7724,342.7729c0,188.9873 153.7768,342.7812 342.7724,342.7812c188.9971,0 342.7744,-153.7939 342.7744,-342.7812c0,-188.9971 -153.7773,-342.7729 -342.7744,-342.7729l0,0z" fill="#000000"/>
    </g>
    <g id="svg_8">
     <path id="svg_9" d="m431.8652,379.8228c-10.1499,0 -18.3637,-8.2134 -18.3637,-18.3638c0,-129.6196 105.4292,-235.0664 235.0307,-235.0664c10.1494,0 18.3643,8.2129 18.3643,18.3633c0,10.1499 -8.2149,18.3637 -18.3643,18.3637c-109.3379,0 -198.3037,88.9663 -198.3037,198.3394c0,10.1504 -8.2138,18.3638 -18.3633,18.3638l0,0z" fill="#000000"/>
    </g>
   </g>
  </g>
 </g>
</svg>