<?xml version="1.0" encoding="utf-8"?>
<!-- Generator: Adobe Illustrator 23.0.0, SVG Export Plug-In . SVG Version: 6.00 Build 0)  -->
<svg version="1.1" id="Layer_1" xmlns="http://www.w3.org/2000/svg" xmlns:xlink="http://www.w3.org/1999/xlink" x="0px" y="0px"
	 viewBox="0 0 1366 768" style="enable-background:new 0 0 1366 768;" xml:space="preserve">
<style type="text/css">
	.st0{fill:none;stroke:#ADBBF9;stroke-linejoin:round;stroke-miterlimit:10;stroke-dasharray:3.5,3.5;}
	.st1{fill:#E4E9F9;}
	.st2{fill:#FFFFFF;stroke:#ADBBF9;stroke-linejoin:round;stroke-miterlimit:10;}
	.st3{fill:none;stroke:#ADBBF9;stroke-linejoin:round;stroke-miterlimit:10;}
	.st4{fill:#FFFFFF;}
	.st5{fill:#ADBBF9;}
	.st6{fill:#849CF4;}
	.st7{fill:none;stroke:#4643BF;stroke-miterlimit:10;}
	.st8{clip-path:url(#SVGID_2_);}
	.st9{fill:url(#SVGID_3_);}
	.st10{fill:url(#SVGID_4_);}
	.st11{fill:#D3DBF4;}
	.st12{fill:none;stroke:#FFFFFF;stroke-miterlimit:10;}
	.st13{fill:#E3EAFC;}
	.st14{fill:#F0F1FF;}
	.st15{fill:#C2CFEF;}
	.st16{fill:none;stroke:#D3DBF4;stroke-miterlimit:10;}
	.st17{fill:none;stroke:#849CF4;stroke-miterlimit:10;}
	.st18{fill:#FFCBBD;}
	.st19{fill:#F7471E;}
	.st20{fill:none;stroke:#B22B19;stroke-width:0.75;stroke-miterlimit:10;}
	.st21{fill:#0E32AE;}
	.st22{fill:none;stroke:#121649;stroke-width:0.75;stroke-miterlimit:10;}
	.st23{fill:#FFCBBB;}
	.st24{fill:none;stroke:#EF977F;stroke-miterlimit:10;}
	.st25{fill:#4A1A1A;}
	.st26{fill:none;stroke:#F7A794;stroke-width:0.5;stroke-miterlimit:10;}
	.st27{fill:#212237;}
	.st28{fill:none;stroke:#212237;stroke-width:0.5;stroke-linecap:round;stroke-linejoin:round;stroke-miterlimit:10;}
	.st29{fill:none;stroke:#F7A794;stroke-miterlimit:10;}
	.st30{fill:#EF977F;}
	.st31{fill:#18277A;}
	.st32{fill:#0D219B;}
	.st33{fill:none;stroke:#E88872;stroke-width:0.5;stroke-linejoin:round;stroke-miterlimit:10;}
	.st34{fill:#28364C;}
	.st35{fill:none;stroke:#28364C;stroke-width:0.75;stroke-miterlimit:10;}
	.st36{fill:none;stroke:#525BCE;stroke-width:0.75;stroke-miterlimit:10;}
	.st37{fill:#F49C8E;}
	.st38{fill:none;stroke:#0E32AE;stroke-miterlimit:10;}
	.st39{fill:#E23917;}
	.st40{fill:none;stroke:#28364C;stroke-width:0.5;stroke-linecap:round;stroke-miterlimit:10;}
	.st41{fill:#E88872;}
	.st42{fill:none;stroke:#5565AA;stroke-width:0.75;stroke-miterlimit:10;}
	.st43{fill-rule:evenodd;clip-rule:evenodd;fill:#FFCBBB;}
	.st44{fill:none;stroke:#28364C;stroke-width:0.5;stroke-linecap:round;stroke-linejoin:round;stroke-miterlimit:10;}
	.st45{fill:#14122D;}
</style>
<g>
	<g>
		<path class="st0" d="M609.18,506.1c-5.76-19.9-22.24-35.2-43.5-35.72c-12.36-0.3-24.35,5-34.88,11.05
			c-14.21,8.16-30.96,18.01-47.97,15.54c-10.89-1.59-23.79-7.7-26.35-20.33c-2.7-13.36,8.09-22.53,19.63-27.9
			c9.89-4.61,23.76-15.62,28.21-26.16c17.62-41.81-31.65-89.53-17.75-137.18c14.55-49.87,81.94-58.3,115.81-24.44
			c3.25,3.25,6.28,6.71,9.05,10.38c6.91,9.18,10.98,21.68,20.59,28.57c12.44,8.92,28.56,6.06,41.97,0.77
			c25.61-10.12,32.39-16.8,57.43-27.7c18.01-7.84,40.2-14.83,60.43-7.87c14.5,4.99,30.52,13.97,38.63,26.96
			c15.08,24.16,8.31,50.19,32.15,84.55c10.8,15.57,27.97,19.93,41.65,31.18c35.46,29.16,23.61,90.64-15.07,111.67
			c-31.76,17.27-70.86,13.33-105.3,8.9c-2.64-0.34-5.28-0.7-7.91-1.09"/>
		<path class="st1" d="M860.61,279.47c2.98-3.4,5.63-7.18,7.83-11.36c2.2-4.17,3.84-8.49,4.97-12.87l-11.82-4.19
			c0.95-4.08,1.31-8.22,1.14-12.32l12.41-1.93c-0.61-9.23-3.38-18.21-8.08-26.18l-11.34,5.4c-2.17-3.47-4.8-6.69-7.89-9.53
			l7.4-10.13c-3.4-2.98-7.18-5.63-11.36-7.83c-4.17-2.2-8.49-3.84-12.87-4.97l-4.19,11.82c-4.08-0.95-8.22-1.31-12.32-1.14
			l-1.93-12.41c-9.23,0.61-18.21,3.38-26.18,8.08l5.4,11.34c-3.47,2.17-6.69,4.8-9.53,7.89l-10.13-7.4
			c-2.98,3.4-5.63,7.18-7.83,11.36c-2.2,4.17-3.84,8.49-4.97,12.87l11.82,4.19c-0.95,4.08-1.31,8.22-1.14,12.32l-12.41,1.93
			c0.61,9.23,3.38,18.21,8.08,26.18l11.34-5.4c2.17,3.47,4.8,6.69,7.89,9.53l-7.4,10.13c3.4,2.98,7.18,5.63,11.36,7.83
			c4.17,2.2,8.49,3.84,12.87,4.97l4.19-11.82c4.08,0.95,8.22,1.31,12.32,1.14l1.93,12.41c9.23-0.61,18.21-3.38,26.18-8.08
			l-5.4-11.34c3.47-2.17,6.69-4.8,9.53-7.89L860.61,279.47z M802.63,266.63c-14.37-7.59-19.86-25.39-12.28-39.75
			c7.59-14.37,25.39-19.86,39.75-12.28c14.37,7.59,19.86,25.39,12.28,39.75C834.79,268.72,817,274.21,802.63,266.63z M806.6,259.1
			c-10.21-5.39-14.11-18.04-8.72-28.25c5.39-10.21,18.04-14.11,28.25-8.72c10.21,5.39,14.11,18.04,8.72,28.25
			C829.46,260.58,816.81,264.49,806.6,259.1z"/>
		<path class="st1" d="M592,307.93c1.63-2.28,3.02-4.77,4.12-7.48c1.1-2.71,1.84-5.47,2.27-8.24l-7.54-1.85
			c0.33-2.57,0.3-5.15-0.06-7.66l7.53-1.95c-0.94-5.65-3.21-11.01-6.59-15.63l-6.65,4.03c-1.55-2.01-3.37-3.82-5.45-5.38l3.94-6.7
			c-2.28-1.63-4.77-3.02-7.48-4.12c-2.71-1.1-5.47-1.84-8.24-2.27l-1.85,7.54c-2.57-0.33-5.15-0.3-7.66,0.06l-1.95-7.53
			c-5.65,0.94-11.01,3.21-15.63,6.59l4.03,6.65c-2.01,1.55-3.82,3.37-5.38,5.45l-6.7-3.94c-1.63,2.28-3.02,4.77-4.12,7.48
			c-1.1,2.71-1.84,5.47-2.27,8.24l7.54,1.85c-0.33,2.57-0.3,5.15,0.06,7.66l-7.53,1.95c0.94,5.65,3.21,11.01,6.59,15.63l6.65-4.03
			c1.55,2.01,3.37,3.82,5.45,5.38l-3.94,6.7c2.28,1.63,4.77,3.02,7.48,4.12c2.71,1.1,5.47,1.84,8.24,2.27l1.85-7.54
			c2.57,0.33,5.15,0.3,7.66-0.06l1.95,7.53c5.65-0.94,11.01-3.21,15.63-6.59l-4.03-6.65c2.01-1.55,3.82-3.37,5.38-5.45L592,307.93z
			 M555.49,303.59c-9.32-3.79-13.8-14.42-10.01-23.74c3.79-9.32,14.42-13.8,23.74-10.01c9.32,3.79,13.8,14.42,10.01,23.74
			C575.44,302.9,564.81,307.38,555.49,303.59z M557.48,298.71c-6.62-2.69-9.81-10.24-7.12-16.87c2.69-6.62,10.24-9.81,16.87-7.12
			c6.62,2.69,9.81,10.24,7.12,16.87C571.65,298.21,564.1,301.4,557.48,298.71z"/>
		<path class="st1" d="M621.94,238.57c1.29-1.47,2.44-3.11,3.39-4.92c0.96-1.81,1.66-3.68,2.15-5.58l-5.12-1.82
			c0.41-1.77,0.57-3.57,0.49-5.34l5.38-0.84c-0.26-4-1.47-7.9-3.5-11.35l-4.91,2.34c-0.94-1.51-2.08-2.9-3.42-4.13l3.21-4.39
			c-1.47-1.29-3.11-2.44-4.92-3.39s-3.68-1.66-5.58-2.15l-1.82,5.12c-1.77-0.41-3.57-0.57-5.34-0.49l-0.84-5.38
			c-4,0.26-7.9,1.47-11.35,3.5l2.34,4.91c-1.51,0.94-2.9,2.08-4.13,3.42l-4.39-3.21c-1.29,1.47-2.44,3.11-3.39,4.92
			c-0.96,1.81-1.66,3.68-2.15,5.58l5.12,1.82c-0.41,1.77-0.57,3.57-0.49,5.34l-5.38,0.84c0.26,4,1.47,7.9,3.5,11.35l4.91-2.34
			c0.94,1.51,2.08,2.9,3.42,4.13l-3.21,4.39c1.47,1.29,3.11,2.44,4.92,3.39c1.81,0.96,3.68,1.66,5.58,2.15l1.82-5.12
			c1.77,0.41,3.57,0.57,5.34,0.49l0.84,5.38c4-0.26,7.9-1.47,11.35-3.5l-2.34-4.91c1.51-0.94,2.9-2.08,4.13-3.42L621.94,238.57z
			 M598.48,229.85c-4.48-2.37-6.2-7.92-3.83-12.41c2.37-4.48,7.92-6.2,12.41-3.83c4.48,2.37,6.2,7.92,3.83,12.41
			C608.52,230.5,602.96,232.21,598.48,229.85z"/>
		<path class="st2" d="M501.11,318.33c-0.03-0.67-0.09-1.38-0.17-2.13c-0.69-6.21-4.94-5.64-7.59-5.45c-2.65,0.19-5.94,0.29-7.2-2.6
			c-0.55-1.26-0.53-2.77-0.89-4.13c-0.8-3.01-3.48-4.82-6.04-4.82c-2.56-0.01-4.98,1.46-7.07,3.28c-1.09,0.94-2.32,2.05-3.61,1.69
			c-0.83-0.23-1.48-1.02-2-1.86c-3.03-4.92-3.01-12.08-6.33-16.71c-3.66-5.11-10.51-5.21-15.14-1.5s-7.29,10.32-8.51,16.99
			c-0.39,2.17-0.74,4.55-2.07,6.02c-1.91,2.11-4.84,1.41-7.39,1.13c-2.96-0.33-6.12,0.15-8.52,2.32c-1.96,1.77-3.23,4.87-2.99,7.78
			H501.11z"/>
		<path class="st2" d="M672.4,210.77h84.18c0,0-3.37-3.92-7.19-5.26c-4.81-1.68-6.8,3.05-9.84-3.07c-1.7-3.43-2.89-7.95-7.37-9.12
			c-7-1.83-8.78,3.95-12.12,2.39c-2.93-1.37-2.84-6.87-5.79-11.46c-2.89-4.49-9.93-7.25-14.74-4.91
			c-8.78,4.28-7.64,11.08-10.51,13.32c-2.84,2.21-9.34-5.58-16.62,2.85C667.38,201.32,672.4,210.77,672.4,210.77z"/>
		<path class="st3" d="M760.27,181.85c0,2.04-1.65,3.69-3.69,3.69c-2.04,0-3.69-1.65-3.69-3.69c0-2.04,1.65-3.69,3.69-3.69
			C758.61,178.15,760.27,179.81,760.27,181.85z"/>
		<path class="st3" d="M1003.7,479.54c0,2.04-1.65,3.69-3.69,3.69c-2.04,0-3.69-1.65-3.69-3.69c0-2.04,1.65-3.69,3.69-3.69
			C1002.04,475.85,1003.7,477.5,1003.7,479.54z"/>
		<path class="st3" d="M827.28,326.49c0,2.04-1.65,3.69-3.69,3.69c-2.04,0-3.69-1.65-3.69-3.69c0-2.04,1.65-3.69,3.69-3.69
			C825.62,322.79,827.28,324.44,827.28,326.49z"/>
		<path class="st3" d="M370.42,370.29c0,2.04-1.65,3.69-3.69,3.69c-2.04,0-3.69-1.65-3.69-3.69c0-2.04,1.65-3.69,3.69-3.69
			C368.77,366.59,370.42,368.25,370.42,370.29z"/>
		<path class="st3" d="M521.11,231.81c0,2.04-1.65,3.69-3.69,3.69c-2.04,0-3.69-1.65-3.69-3.69c0-2.04,1.65-3.69,3.69-3.69
			C519.46,228.12,521.11,229.77,521.11,231.81z"/>
		<path class="st3" d="M564.86,215.01c0,1.39-1.12,2.51-2.51,2.51s-2.51-1.12-2.51-2.51s1.12-2.51,2.51-2.51
			S564.86,213.63,564.86,215.01z"/>
		<path class="st3" d="M973.81,392.76c0,1.39-1.12,2.51-2.51,2.51c-1.39,0-2.51-1.12-2.51-2.51c0-1.39,1.12-2.51,2.51-2.51
			C972.68,390.25,973.81,391.38,973.81,392.76z"/>
		<circle class="st3" cx="791.38" cy="309.65" r="2.51"/>
		<path class="st3" d="M892.66,246.47c0,1.39-1.12,2.51-2.51,2.51c-1.39,0-2.51-1.12-2.51-2.51s1.12-2.51,2.51-2.51
			C891.53,243.96,892.66,245.09,892.66,246.47z"/>
		<path class="st3" d="M887.31,430.42c0,1.39-1.12,2.51-2.51,2.51c-1.39,0-2.51-1.12-2.51-2.51c0-1.39,1.12-2.51,2.51-2.51
			C886.19,427.91,887.31,429.03,887.31,430.42z"/>
		<path class="st3" d="M497.6,454.46c0,1.39-1.12,2.51-2.51,2.51c-1.39,0-2.51-1.12-2.51-2.51c0-1.39,1.12-2.51,2.51-2.51
			C496.47,451.95,497.6,453.07,497.6,454.46z"/>
		<path class="st3" d="M505.13,339.75c0,1.39-1.12,2.51-2.51,2.51c-1.39,0-2.51-1.12-2.51-2.51c0-1.39,1.12-2.51,2.51-2.51
			C504.01,337.24,505.13,338.36,505.13,339.75z"/>
		<path class="st1" d="M989.25,356.84h-3.36c-0.6,0-1.09-0.49-1.09-1.09v-3.36c0-0.6,0.49-1.09,1.09-1.09h3.36
			c0.6,0,1.09,0.49,1.09,1.09v3.36C990.35,356.35,989.86,356.84,989.25,356.84z"/>
		<path class="st1" d="M472.13,472.43h-3.36c-0.6,0-1.09-0.49-1.09-1.09v-3.36c0-0.6,0.49-1.09,1.09-1.09h3.36
			c0.6,0,1.09,0.49,1.09,1.09v3.36C473.22,471.94,472.73,472.43,472.13,472.43z"/>
		<path class="st1" d="M466.28,267.88h-3.36c-0.6,0-1.09-0.49-1.09-1.09v-3.36c0-0.6,0.49-1.09,1.09-1.09h3.36
			c0.6,0,1.09,0.49,1.09,1.09v3.36C467.38,267.39,466.89,267.88,466.28,267.88z"/>
		<path class="st1" d="M897.95,228.18h-6.46c-1.16,0-2.1-0.94-2.1-2.1v-6.46c0-1.16,0.94-2.1,2.1-2.1h6.46c1.16,0,2.1,0.94,2.1,2.1
			v6.46C900.05,227.24,899.11,228.18,897.95,228.18z"/>
		<path class="st1" d="M837.7,389.15h-3.36c-0.6,0-1.09-0.49-1.09-1.09v-3.36c0-0.6,0.49-1.09,1.09-1.09h3.36
			c0.6,0,1.09,0.49,1.09,1.09v3.36C838.79,388.66,838.3,389.15,837.7,389.15z"/>
		<path class="st2" d="M761.17,349.31c0.03-0.48,0.07-0.99,0.14-1.53c0.56-4.46,4.05-4.05,6.23-3.91c2.17,0.14,4.87,0.21,5.91-1.87
			c0.45-0.9,0.43-1.99,0.73-2.96c0.66-2.16,2.86-3.46,4.96-3.46c2.1,0,4.08,1.05,5.8,2.35c5.58,4.23,7.18-6.9,9.83-10.13
			c3.01-3.67,8.61-5.72,12.41-3.06c3.8,2.66,5.99,7.4,6.98,12.19c0.32,1.56,0.44,3.46,1.7,4.32c3.69,2.52,8.44-2.37,12.9,1.43
			c1.56,1.33,1.86,4.54,1.66,6.63H761.17z"/>
	</g>
	<g>
		<g>
			<path class="st4" d="M485.71,577.91c-12.54-18.91-38.79-66.7-16.04-83.14c12.49-9.03,29.05-0.81,37.06,19.1
				c7.6,18.91,10.51,41.25,13.68,63.77"/>
			<g>
				<path class="st5" d="M485.97,577.75c-6-9.19-11.4-18.83-15.88-28.85c-4.85-10.86-9.31-22.95-8.99-35.03
					c0.29-10.81,6.86-21.88,18.76-22.35c15.03-0.59,23.97,15.09,28.26,27.25c6.68,18.96,9.09,39.17,11.88,58.98
					c0.08,0.54,0.89,0.31,0.81-0.22c-2.71-19.26-5.08-38.84-11.31-57.35c-4.14-12.29-11.75-27.11-26.08-29.25
					c-10.62-1.59-19.87,6.22-22.26,16.25c-2.75,11.54,1.11,24.2,5.27,34.92c4.9,12.63,11.47,24.72,19,35.97
					C485.66,578.39,486.19,578.09,485.97,577.75L485.97,577.75z"/>
			</g>
		</g>
		<line class="st2" x1="476.12" y1="491.93" x2="505.68" y2="577.97"/>
		<g>
			<path class="st4" d="M435.44,577.92c-10.82-13.99-34.46-49.34-14.83-61.5c10.78-6.68,24.06-0.6,30.97,14.13
				c6.56,13.99,9.07,30.52,11.8,47.17"/>
			<g>
				<path class="st5" d="M435.71,577.77c-5.01-6.6-9.69-13.5-13.67-20.77c-4.24-7.75-8.39-16.54-8.58-25.54
					c-0.19-8.94,5.75-16.51,14.99-17.27c11.59-0.96,19.73,9.4,23.82,18.94c6.07,14.14,8.23,29.64,10.71,44.72
					c0.09,0.53,0.9,0.31,0.81-0.22c-2.43-14.84-4.59-30.05-10.41-44.03c-3.91-9.39-11.03-19.28-22.06-20.21
					c-8.23-0.69-16.35,4.68-18.16,12.85c-1.91,8.61,1.71,17.91,5.36,25.56c4.47,9.39,10.31,18.18,16.71,26.36
					C435.44,578.42,435.92,578.05,435.71,577.77L435.71,577.77z"/>
			</g>
		</g>
		<line class="st2" x1="426.17" y1="514.32" x2="451.67" y2="577.97"/>
		<path class="st2" d="M561.92,577.73c-29.63-53.76-48.78-107.05-24.86-132.37c23.69-25.09,48.48,4.64,54.51,30.98
			c7.39,32.26,8.46,67.19,8.31,101.39"/>
		<line class="st3" x1="545.83" y1="438.82" x2="581.43" y2="577.65"/>
		<g>
			<path class="st4" d="M517.45,577.89c-11.77-28.44-38.25-85.96-19.58-103.75c11.94-11.37,33.51,2.57,44.6,27.42
				c10.54,23.6,13.7,47.89,20.02,75.99"/>
			<g>
				<path class="st5" d="M517.75,577.81c-5.59-13.67-11.48-27.2-16.39-41.13c-4.93-13.98-9.86-29.12-9.56-44.12
					c0.11-5.51,1.08-11.38,4.41-15.92c3.84-5.22,10.02-7.09,16.21-5.51c7.27,1.86,13.44,7.07,18.29,12.59
					c6.61,7.52,11.04,16.47,14.58,25.77c8.34,21.94,11.69,45.38,16.8,68.18c0.12,0.53,0.93,0.31,0.81-0.22
					c-4.86-21.73-8.13-44-15.64-65.04c-5.62-15.76-14.6-33.78-30.92-40.77c-5.25-2.25-11.4-2.82-16.4,0.38
					c-4.49,2.88-7.01,7.83-8.11,12.93c-1.36,6.34-0.9,12.98,0.04,19.34c1.18,8.02,3.3,15.88,5.73,23.6
					c5.4,17.12,12.6,33.57,19.54,50.09C517.3,578.34,517.9,578.18,517.75,577.81L517.75,577.81z"/>
			</g>
		</g>
		<g>
			<path class="st4" d="M747.13,577.73c-9.99-114.45,14.32-156.26,40.92-158.13c12.6-0.89,49.5,6.37,4.95,158.06"/>
			<g>
				<path class="st5" d="M747.33,577.73c-2.46-37.68-4.98-76.84,4.74-113.8c4.21-16.02,12.11-36.69,29.37-42.6
					c6.81-2.33,14.55-1.9,20.32,2.7c10.2,8.14,11.78,23.98,12.17,35.99c0.43,13.47-1.03,26.99-3.11,40.28
					c-3.12,20.01-7.82,39.76-13.13,59.3c-1.63,6-3.33,11.99-4.98,17.99c-0.1,0.37,0.47,0.53,0.58,0.16
					c6.76-21.71,12.3-43.96,16.43-66.32c2.72-14.71,4.82-29.64,5.04-44.62c0.13-9.11-0.37-18.47-2.91-27.27
					c-1.5-5.18-3.8-10.34-7.6-14.26c-4.89-5.05-11.72-6.87-18.56-5.78c-16.7,2.65-26.14,19.7-31.26,34.16
					c-4.81,13.58-7.14,27.98-8.49,42.28c-1.98,20.94-1.73,42.07-0.49,63.04c0.37,6.26,0.81,12.52,1.48,18.76
					C746.96,577.98,747.34,577.99,747.33,577.73L747.33,577.73z"/>
			</g>
		</g>
		<line class="st2" x1="793.23" y1="419.87" x2="769.74" y2="577.66"/>
		<g>
			<path class="st4" d="M825.75,577.74c8.15-68.02,35.59-107.23,60.38-96.59c20.28,8.7,9.82,46.57-21.78,96.54"/>
			<g>
				<path class="st5" d="M825.94,577.79c3.07-20.04,6.65-39.88,14.38-58.74c5.13-12.5,12.12-25.97,23.33-34.09
					c7.59-5.5,18.35-7.5,26.16-1.17c9.12,7.38,6.63,21.96,4.07,31.77c-5.82,22.31-18.1,42.37-29.79,61.98
					c-0.2,0.34,0.31,0.62,0.52,0.3c6.79-10.2,12.84-20.99,18.25-31.98c4.22-8.57,8.05-17.4,10.78-26.56
					c3.04-10.17,6.4-24.75-1.12-33.89c-6.03-7.32-16.93-7.78-24.92-3.77c-11.44,5.75-18.99,18-24.38,29.12
					c-4.57,9.42-7.99,19.37-10.71,29.47c-3.29,12.23-5.84,24.88-6.96,37.5C825.53,577.96,825.9,578.01,825.94,577.79L825.94,577.79z
					"/>
			</g>
		</g>
		<line class="st2" x1="886.13" y1="481.16" x2="845.56" y2="577.7"/>
		<line class="st2" x1="504.33" y1="470.61" x2="540.56" y2="577.97"/>
		<g>
			<path class="st4" d="M828.77,577.87c16.02-33.97,48.34-111.53,24-139.03c-13.36-15.1-37.82,3.44-50.79,36.74
				c-12.32,31.62-21.54,64.18-29.18,101.84"/>
			<g>
				<path class="st5" d="M829.04,578.02c8.39-17.65,15.93-35.77,22.02-54.34c6.27-19.14,12-39.9,10.73-60.24
					c-0.78-12.47-6.7-32.69-23.01-30.1c-8.83,1.41-16.23,8.35-21.71,14.96c-8.04,9.71-13.23,21.05-17.64,32.76
					c-11.77,31.25-20.38,63.55-27.04,96.25c-0.11,0.53,0.71,0.76,0.81,0.22c5.69-27.94,12.77-55.6,22.1-82.56
					c4.35-12.56,8.7-25.36,15.7-36.72c5.29-8.58,12.24-17.32,21.43-21.94c7.13-3.58,14.95-3.15,20.35,3.13
					c5.07,5.9,7.24,13.77,8.01,21.36c1.97,19.3-3.17,39.27-8.83,57.56c-6.3,20.33-14.45,40.07-23.45,59.35
					C828.34,578.07,828.87,578.38,829.04,578.02L829.04,578.02z"/>
			</g>
		</g>
		<line class="st2" x1="845.56" y1="434.1" x2="802.71" y2="577.97"/>
		<g>
			<path class="st4" d="M857.06,577.74c21.12-42.82,39.46-54.15,56.68-50.73c13.39,2.66,15.48,22.44-12.82,50.7"/>
			<g>
				<path class="st5" d="M857.23,577.84c6.54-11.65,12.45-23.49,21.15-33.76c5.37-6.34,11.8-12.37,19.69-15.38
					c5.5-2.09,12.74-2.94,18.29-0.47c6.18,2.75,7.21,9.79,5.99,15.78c-2.71,13.28-12.81,23.88-21.63,33.5
					c-0.26,0.29,0.14,0.69,0.43,0.43c8.99-8.33,17.95-19.37,21.39-31.37c1.68-5.86,1.91-13.31-3.31-17.5
					c-4.55-3.64-11.83-3.53-17.23-2.33c-7.85,1.75-14.57,6.76-20.1,12.41c-4.46,4.55-8.32,9.68-11.83,14.98
					c-4.92,7.42-9.6,15.33-13.15,23.52C856.8,577.87,857.1,578.07,857.23,577.84L857.23,577.84z"/>
			</g>
		</g>
		<line class="st2" x1="912.08" y1="527.3" x2="879.81" y2="577.71"/>
	</g>
	<g>
		<g>
			<path class="st6" d="M594.25,577.52c-5.15,0-9.33-4.19-9.33-9.33V237.72c0-5.15,4.19-9.33,9.33-9.33h175.5
				c5.15,0,9.33,4.19,9.33,9.33v330.47c0,5.15-4.19,9.33-9.33,9.33H594.25z"/>
			<path class="st6" d="M769.75,228.89c4.87,0,8.83,3.96,8.83,8.83v330.47c0,4.87-3.96,8.83-8.83,8.83h-175.5
				c-4.87,0-8.83-3.96-8.83-8.83V237.72c0-4.87,3.96-8.83,8.83-8.83H769.75 M769.75,227.89h-175.5c-5.43,0-9.83,4.4-9.83,9.83
				v330.47c0,5.43,4.4,9.83,9.83,9.83h175.5c5.43,0,9.83-4.4,9.83-9.83V237.72C779.58,232.29,775.18,227.89,769.75,227.89
				L769.75,227.89z"/>
		</g>
		<g>
			<path class="st7" d="M690.92,561.96c0,4.92-3.99,8.92-8.92,8.92c-4.92,0-8.92-3.99-8.92-8.92s3.99-8.92,8.92-8.92
				C686.92,553.04,690.92,557.03,690.92,561.96z"/>
		</g>
		<g>
			<defs>
				<path id="SVGID_1_" d="M769.75,578.02h-175.5c-5.43,0-9.83-4.4-9.83-9.83V237.72c0-5.43,4.4-9.83,9.83-9.83h175.5
					c5.43,0,9.83,4.4,9.83,9.83v330.47C779.58,573.62,775.18,578.02,769.75,578.02z"/>
			</defs>
			<clipPath id="SVGID_2_">
				<use xlink:href="#SVGID_1_"  style="overflow:visible;"/>
			</clipPath>
			<g class="st8">
				<linearGradient id="SVGID_3_" gradientUnits="userSpaceOnUse" x1="530.0817" y1="534.7483" x2="822.7789" y2="242.051">
					<stop  offset="0.2704" style="stop-color:#FFFFFF;stop-opacity:0.1"/>
					<stop  offset="1" style="stop-color:#FFFFFF;stop-opacity:0.3"/>
				</linearGradient>
				<polygon class="st9" points="728.23,189.95 582.18,586.85 624.63,586.85 770.68,189.95 				"/>
				<linearGradient id="SVGID_4_" gradientUnits="userSpaceOnUse" x1="579.5466" y1="528.6349" x2="860.0172" y2="248.1644">
					<stop  offset="0.2704" style="stop-color:#FFFFFF;stop-opacity:0.1"/>
					<stop  offset="1" style="stop-color:#FFFFFF;stop-opacity:0.3"/>
				</linearGradient>
				<polygon class="st10" points="783.81,189.95 637.76,586.85 655.76,586.85 801.81,189.95 				"/>
			</g>
		</g>
		<rect x="585.97" y="260.5" class="st4" width="192.05" height="284.91"/>
		<g>
			<path class="st7" d="M671.02,242.41h27.05c0.6,0,1.08,0.48,1.08,1.08l0,0c0,0.6-0.48,1.08-1.08,1.08h-27.05
				c-0.6,0-1.08-0.48-1.08-1.08l0,0C669.94,242.9,670.42,242.41,671.02,242.41z"/>
			<circle class="st7" cx="664.97" cy="243.5" r="1.12"/>
		</g>
		<g>
			<g>
				<rect x="599.1" y="370.83" class="st11" width="82.9" height="83.78"/>
				<g>
					
						<ellipse transform="matrix(0.1593 -0.9872 0.9872 0.1593 142.9283 969.2039)" class="st12" cx="640.55" cy="400.68" rx="17.16" ry="17.16"/>
					<ellipse class="st12" cx="640.55" cy="400.68" rx="11.82" ry="17.16"/>
					<ellipse class="st12" cx="640.55" cy="400.68" rx="4.61" ry="17.16"/>
					<line class="st12" x1="623.38" y1="400.68" x2="657.71" y2="400.68"/>
					<path class="st12" d="M625.18,408.33c3.28-1.1,8.94-1.82,15.37-1.82c6.43,0,12.08,0.72,15.36,1.82"/>
					<path class="st12" d="M630.16,414.34c2.95-1.12,6.53-1.78,10.39-1.78c3.8,0,7.34,0.64,10.27,1.73"/>
					<path class="st12" d="M625.18,393.12c3.28,1.1,8.94,1.82,15.37,1.82c6.43,0,12.08-0.72,15.36-1.82"/>
					<path class="st12" d="M630.16,387.11c2.95,1.12,6.53,1.78,10.39,1.78c3.8,0,7.34-0.64,10.27-1.73"/>
				</g>
				<g>
					
						<rect x="606.15" y="435.2" transform="matrix(-1 -1.224647e-16 1.224647e-16 -1 1281.0956 874.8291)" class="st13" width="68.8" height="4.43"/>
					
						<rect x="633.83" y="426.96" transform="matrix(-1 -1.224647e-16 1.224647e-16 -1 1308.7789 858.3505)" class="st13" width="41.12" height="4.43"/>
					<rect x="606.15" y="426.96" class="st13" width="23.01" height="4.43"/>
					
						<rect x="606.15" y="443.44" transform="matrix(-1 -1.224647e-16 1.224647e-16 -1 1281.0956 891.3079)" class="st13" width="68.8" height="4.43"/>
				</g>
			</g>
			<g>
				<rect x="681.91" y="370.83" class="st14" width="82.9" height="83.78"/>
				<g>
					
						<rect x="688.97" y="385.76" transform="matrix(-1 -1.224647e-16 1.224647e-16 -1 1446.7321 775.9571)" class="st1" width="68.8" height="4.43"/>
					
						<rect x="688.97" y="394" transform="matrix(-1 -1.224647e-16 1.224647e-16 -1 1446.7321 792.4357)" class="st1" width="68.8" height="4.43"/>
					
						<rect x="688.97" y="402.24" transform="matrix(-1 -1.224647e-16 1.224647e-16 -1 1399.3563 808.9144)" class="st1" width="21.42" height="4.43"/>
					
						<rect x="716.12" y="402.24" transform="matrix(-1 -1.224647e-16 1.224647e-16 -1 1473.7919 808.9144)" class="st1" width="41.55" height="4.43"/>
					
						<rect x="688.97" y="410.48" transform="matrix(-1 -1.224647e-16 1.224647e-16 -1 1446.7321 825.393)" class="st1" width="68.8" height="4.43"/>
					
						<rect x="688.97" y="418.72" transform="matrix(-1 -1.224647e-16 1.224647e-16 -1 1446.7321 841.8719)" class="st1" width="68.8" height="4.43"/>
					
						<rect x="688.97" y="426.96" transform="matrix(-1 -1.224647e-16 1.224647e-16 -1 1446.7321 858.3505)" class="st1" width="68.8" height="4.43"/>
					
						<rect x="737.9" y="435.2" transform="matrix(-1 -1.224647e-16 1.224647e-16 -1 1495.6655 874.8291)" class="st1" width="19.87" height="4.43"/>
					
						<rect x="688.97" y="435.2" transform="matrix(-1 -1.224647e-16 1.224647e-16 -1 1422.1227 874.8291)" class="st1" width="44.19" height="4.43"/>
					
						<rect x="688.97" y="443.44" transform="matrix(-1 -1.224647e-16 1.224647e-16 -1 1446.7321 891.3079)" class="st1" width="68.8" height="4.43"/>
					
						<rect x="739.54" y="377.52" transform="matrix(-1 -1.224647e-16 1.224647e-16 -1 1497.3098 759.4783)" class="st1" width="18.22" height="4.43"/>
					<rect x="688.97" y="377.52" class="st1" width="45.91" height="4.43"/>
				</g>
			</g>
			<g>
				<rect x="599.1" y="454.61" class="st14" width="82.9" height="83.78"/>
				<g>
					<rect x="606.15" y="519" class="st1" width="68.8" height="4.43"/>
					<rect x="606.15" y="510.76" class="st1" width="68.8" height="4.43"/>
					<rect x="657.25" y="502.52" class="st1" width="17.69" height="4.43"/>
					<rect x="606.24" y="502.52" class="st1" width="45.28" height="4.43"/>
					<rect x="606.15" y="494.28" class="st1" width="68.8" height="4.43"/>
					<rect x="606.15" y="486.04" class="st1" width="68.8" height="4.43"/>
					<rect x="606.15" y="477.8" class="st1" width="68.8" height="4.43"/>
					<rect x="606.15" y="469.56" class="st1" width="31.97" height="4.43"/>
					<rect x="642.86" y="469.56" class="st1" width="32.09" height="4.43"/>
					<rect x="606.15" y="461.32" class="st1" width="68.8" height="4.43"/>
					<rect x="606.15" y="527.24" class="st1" width="32.06" height="4.43"/>
					
						<rect x="642.88" y="527.24" transform="matrix(-1 -1.224647e-16 1.224647e-16 -1 1317.8315 1058.9047)" class="st1" width="32.06" height="4.43"/>
				</g>
			</g>
			<g>
				<rect x="681.91" y="454.61" class="st11" width="82.9" height="83.78"/>
				<g>
					<g>
						<polygon class="st15" points="740.23,512.27 706.97,511.87 703.25,487.97 743.44,487.9 						"/>
						<polygon class="st15" points="743.44,487.9 703.25,487.97 723.31,471.42 						"/>
						
							<rect x="709.35" y="485.58" transform="matrix(1 -1.760907e-03 1.760907e-03 1 -0.8743 1.274)" class="st4" width="27.43" height="23.17"/>
						<polygon class="st13" points="703.25,487.97 703.29,514.1 723.37,501.92 						"/>
						<polygon class="st13" points="743.44,487.9 743.48,514.03 723.37,501.92 						"/>
						<polygon class="st13" points="743.48,514.03 703.29,514.1 723.36,497.55 						"/>
						<polyline class="st16" points="703.29,514.1 723.36,497.55 743.48,514.03 						"/>
						<line class="st16" x1="726.25" y1="499.91" x2="743.44" y2="487.9"/>
					</g>
					<line class="st16" x1="720.48" y1="499.92" x2="703.25" y2="487.97"/>
				</g>
				
					<rect x="707.33" y="524.09" transform="matrix(-1 -1.224647e-16 1.224647e-16 -1 1446.7321 1052.6044)" class="st13" width="32.06" height="4.43"/>
			</g>
			<g>
				<rect x="599.1" y="279.81" class="st11" width="165.81" height="83.59"/>
				<g>
					
						<rect x="679.66" y="291.83" transform="matrix(-1 -1.224647e-16 1.224647e-16 -1 1437.4302 589.4465)" class="st13" width="78.1" height="5.78"/>
					
						<rect x="679.66" y="302.59" transform="matrix(-1 -1.224647e-16 1.224647e-16 -1 1437.4302 610.9529)" class="st13" width="78.1" height="5.78"/>
					
						<rect x="679.66" y="313.34" transform="matrix(-1 -1.224647e-16 1.224647e-16 -1 1437.4302 632.4596)" class="st13" width="78.1" height="5.78"/>
					
						<rect x="679.66" y="324.09" transform="matrix(-1 -1.224647e-16 1.224647e-16 -1 1437.4302 653.966)" class="st13" width="78.1" height="5.78"/>
					
						<rect x="679.66" y="345.6" transform="matrix(-1 -1.224647e-16 1.224647e-16 -1 1437.4302 696.9792)" class="st13" width="78.1" height="5.78"/>
					
						<rect x="711.09" y="334.84" transform="matrix(-1 -1.224647e-16 1.224647e-16 -1 1468.8566 675.4726)" class="st13" width="46.68" height="5.78"/>
					<rect x="679.66" y="334.84" class="st13" width="26.12" height="5.78"/>
				</g>
				<g>
					<rect x="608.6" y="292.07" class="st13" width="59.08" height="59.08"/>
					<polygon class="st4" points="643.62,310.54 661.6,341.28 625.64,341.28 					"/>
					<polygon class="st4" points="625.4,320.64 629.24,328.04 622.36,341.28 614.68,341.28 					"/>
					<path class="st4" d="M616.2,308.76c0,1.84,1.49,3.33,3.33,3.33c1.84,0,3.33-1.49,3.33-3.33c0-1.84-1.49-3.33-3.33-3.33
						C617.69,305.43,616.2,306.92,616.2,308.76z"/>
				</g>
			</g>
			<path class="st11" d="M635.24,272.98h93.52c1.47,0,2.66-1.19,2.66-2.66l0,0c0-1.47-1.19-2.66-2.66-2.66h-93.52
				c-1.47,0-2.66,1.19-2.66,2.66l0,0C632.58,271.78,633.77,272.98,635.24,272.98z"/>
			<line class="st12" x1="682" y1="370.83" x2="682" y2="538.38"/>
			<line class="st12" x1="599.1" y1="454.61" x2="764.9" y2="454.61"/>
		</g>
	</g>
	<line class="st17" x1="403.23" y1="578.02" x2="960.77" y2="578.02"/>
	<g>
		<g>
			<g>
				<g>
					<path class="st18" d="M930.05,550.18l1.74,28.54l-0.93,8.98l-34.03-0.18c-0.86,0-1.55-0.7-1.55-1.56l0,0
						c0-0.64,0.4-1.22,1-1.45l15.18-6.98l-3.43-29.7"/>
					<path class="st19" d="M893.74,587.14c0.36-1.13,1.02-2.39,1.69-2.68l16.1-6.93c8.87,3.6,20.36,0.85,20.36,0.85l0.88,12.12
						c0,0.4-0.33,0.72-0.73,0.72l-38.02-0.2C893.23,591.01,893.73,587.18,893.74,587.14z"/>
					<path class="st20" d="M908.04,578.22c0.9,1.18,1.66,2.46,2.27,3.81"/>
					<path class="st20" d="M906.02,579.44c0.93,1.29,1.31,2.04,1.87,3.24"/>
					<path class="st20" d="M904.3,580.32c0.63,0.85,1.26,2.03,1.75,2.97"/>
				</g>
				<line class="st20" x1="932.55" y1="588.6" x2="893.58" y2="588.4"/>
				<path class="st20" d="M932.2,582.8c0,0-9.03,0.06-9.84,5.74"/>
				<path class="st20" d="M898.73,583.04c0,0,2.6,3.7,3.11,5.4"/>
			</g>
			<path class="st21" d="M903.32,440.5c0,0-4.89,40.17-3.02,69.34c1.87,29.17,4.57,63.02,4.57,63.02h29.58
				c0,0-3.83-50.09-3.41-73.53c0.47-25.98,8.41-58.82,8.41-58.82"/>
			<path class="st22" d="M928.45,572.85c0,0-3.83-50.09-3.41-73.53c0.47-25.98,8.41-58.82,8.41-58.82"/>
			<g>
				<g>
					<path class="st18" d="M968.91,511.96l27.43,8.82l8.28,3.6l-10.46,32.38c-0.26,0.82-1.14,1.27-1.96,1l0,0
						c-0.61-0.2-1.04-0.75-1.08-1.4l-2.06-16.58l-28.48-9.26"/>
					<path class="st19" d="M992.86,559.59c-0.97-0.68-1.97-1.7-2.04-2.42l-1.74-17.44c6.11-7.37,6.96-19.15,6.96-19.15l11.82,2.83
						c0.38,0.12,0.59,0.53,0.47,0.91l-11.69,36.18C996.4,561.26,992.9,559.61,992.86,559.59z"/>
					<path class="st20" d="M988.69,543.26c1.39-0.5,2.85-0.84,4.32-1.01"/>
					<path class="st20" d="M989.23,545.56c1.52-0.5,2.34-0.63,3.65-0.8"/>
					<path class="st20" d="M989.56,547.46c1-0.35,2.32-0.58,3.36-0.77"/>
				</g>
				<line class="st20" x1="1006" y1="523.04" x2="994.01" y2="560.13"/>
				<path class="st20" d="M1000.36,521.62c0,0-2.67,8.62,2.5,11.11"/>
				<path class="st20" d="M990.46,553.6c0,0,4.31-1.36,6.09-1.33"/>
			</g>
			<path class="st21" d="M951.47,441.79c0,0,2.66,11.42,2.66,16.32c0,3.6-1.43,6.05-2.19,8.68c-0.33,1.13-0.51,2.28-0.56,3.45
				c-0.23,5.25-0.53,19.99,2.76,27c4.04,8.61,37.68,20.04,37.68,20.04l-8.53,25.69c0,0-51.5-12.94-57.92-28.7
				c-8.96-21.99-6.4-72.47-6.4-72.47"/>
			<path class="st22" d="M931.58,521.62c-2.97-2.35-5.18-4.82-6.21-7.36c-8.96-21.99-6.4-72.47-6.4-72.47"/>
			<path class="st22" d="M947.11,440.84c0,0,3.02,14.37,3.02,19.27c0,3.67-1.49,6.25-2.23,8.83c-0.3,1.04-0.48,2.11-0.55,3.2
				c-0.32,5.19-0.89,20.22,2.79,27.11c5.09,9.54,40.33,22.1,40.33,22.1"/>
			<path class="st22" d="M914.76,444.6c0,0-0.45,10.37,1,11.61c1.45,1.24,2.86,2.07,2.86,2.07"/>
			<line class="st22" x1="987.57" y1="515.76" x2="978.18" y2="541.58"/>
			<line class="st22" x1="904.47" y1="567.77" x2="934.07" y2="567.77"/>
			<path class="st22" d="M939,442.59c0,0,1.84,6.62,10.06,8.57"/>
			<path class="st22" d="M902.37,450c0,0,7.42-2.17,9.7-7.41"/>
		</g>
		<g>
			<path class="st23" d="M920.26,362.48l-1.33,9.31c0,0-0.12,2.58,4.9,4.37c6.07,2.18,9.76-2.5,9.76-2.5l-0.4-9.42"/>
			<path class="st23" d="M919.52,350.14c0,0-6.45,10.78-1.97,15.09c4.06,3.91,12.99,1.46,13.81,0.09c0.81-1.37,5.9-13.41,3.12-15.07
				C929.53,347.31,922.28,345.5,919.52,350.14z"/>
			<path class="st24" d="M919.59,367.24c0,0,4.37,1.4,8.41-0.36"/>
			<g>
				<path class="st25" d="M918.44,343.14c0.85-6.37,8.57-1.6,11.71,1.3c0.94,0.87,6.45,2.49,7.35,3.41c0.9,0.92,1.62,2.05,1.86,3.32
					c0.21,1.11,0.03,2.25-0.24,3.34c-0.48,1.97-1.26,3.85-2.03,5.72c-0.84,2.04-2.35,6.1-5.26,5.68c-0.56-0.08-1.18-0.19-1.55-0.62
					c-0.37-0.43-0.38-1.05-0.32-1.61c0.1-0.91,0.38-1.8,0.8-2.61c-0.6,0.16-1.22,0.53-1.8,0.3c-0.19-0.08-0.28-0.26-0.39-0.44
					c-0.38-0.62,0.08-4.74,2-6.36c-2.77-1.31-4.94-1.43-7.76-2.62c-2.27-0.96-3.25-2.12-4.06-3.21
					C917.58,347.17,918.19,345.06,918.44,343.14z"/>
			</g>
			<g>
				<path class="st23" d="M930.08,360.69c0.71-0.99,1.79-2.13,2.83-1.09c0.37,0.37,0.47,0.98,0.51,1.57
					c0.13,1.94-1.84,4.42-3.55,3.74c-0.84-0.33-1.07-1.47-1.22-2.41"/>
			</g>
			<path class="st26" d="M920.95,354.9c0,0-2.79,2.74-2.79,3.67c0,0.93,2.09,1.51,2.09,1.51"/>
			<path class="st4" d="M917.1,360.41l5,1.87c0,0-1.16,2.96-4.16,1.6C915.8,362.91,917.1,360.41,917.1,360.41z"/>
			<g>
				<g>
					<path class="st27" d="M918.83,353.37c-0.15,0.22-0.29,0.44-0.42,0.68c-0.24,0.45,0.45,0.85,0.68,0.4
						c0.14-0.26,0.26-0.53,0.37-0.81C919.61,353.25,919.04,353.07,918.83,353.37L918.83,353.37z"/>
				</g>
			</g>
			<path class="st28" d="M920.98,352.42c0,0-0.62-1.39-2.11-0.74"/>
			<g>
				<g>
					<path class="st27" d="M925.07,356.37c-0.14,0.23-0.26,0.46-0.38,0.7c-0.22,0.46,0.48,0.86,0.68,0.4
						c0.12-0.27,0.23-0.55,0.33-0.83C925.82,356.26,925.27,356.05,925.07,356.37L925.07,356.37z"/>
				</g>
			</g>
			<path class="st28" d="M925.27,354.07c0,0,1.52-0.17,2.62,1.83"/>
		</g>
		<g>
			<g>
				<g>
					<path class="st18" d="M898.64,321.74c-0.41-5.41,0.32-20.72-0.63-21.12c-0.95-0.4-1.34,4.78-2.06,4.31
						c-0.72-0.48-0.66-8.5-1.71-8.65c-1.43-0.2-1.05,8.01-1.05,8.01s-0.86-8.98-2.16-8.8c-0.92,0.13-0.57,7.01-0.77,9.66
						c-0.15-2.9-1-8.29-1.95-8.13c-0.94,0.15-0.76,5.57-0.84,9.17c-0.16-2.25-0.61-7.17-1.49-7.07c-0.88,0.1-1.15,12.89-1.16,23.67"
						/>
				</g>
				<path class="st18" d="M897.28,375.89c0,0-5.81-12.16-9.44-26.33c-3.63-14.18-2.99-32.61-2.99-32.61l13.64,2.3
					c0,0,0.62,25.73,16.15,51.27"/>
				<path class="st29" d="M887.66,306.8c1.12,1.71,2.61,3.72,2.54,7.06"/>
				<path class="st29" d="M895.83,306.15c-1.31,1.17-2.73,4.32-2.05,5.94"/>
			</g>
			<path class="st5" d="M942.54,319.13c1.99-2.34,3.76-4.94,5.21-7.8c1.46-2.86,2.53-5.81,3.25-8.8l-8.08-2.74
				c0.6-2.79,0.81-5.61,0.66-8.39l8.42-1.43c-0.5-6.27-2.48-12.36-5.75-17.73l-7.66,3.78c-1.51-2.34-3.33-4.5-5.46-6.4l4.94-6.96
				c-2.34-1.99-4.94-3.76-7.8-5.21c-2.86-1.46-5.81-2.53-8.8-3.25l-2.74,8.08c-2.79-0.6-5.61-0.81-8.39-0.66l-1.43-8.42
				c-6.27,0.5-12.36,2.48-17.73,5.75l3.78,7.66c-2.34,1.51-4.5,3.33-6.4,5.46l-6.96-4.94c-1.99,2.34-3.76,4.94-5.21,7.8
				c-1.46,2.86-2.53,5.81-3.25,8.8l8.08,2.74c-0.6,2.79-0.81,5.61-0.66,8.39l-8.42,1.43c0.5,6.27,2.48,12.36,5.75,17.73l7.66-3.78
				c1.51,2.34,3.33,4.5,5.46,6.4l-4.94,6.96c2.34,1.99,4.94,3.76,7.8,5.21c2.86,1.46,5.81,2.53,8.8,3.25l2.74-8.08
				c2.79,0.6,5.61,0.81,8.39,0.66l1.43,8.42c6.27-0.5,12.36-2.48,17.73-5.75l-3.78-7.66c2.34-1.51,4.5-3.33,6.4-5.46L942.54,319.13z
				 M905.09,306.82c-7.56-3.86-10.56-13.11-6.71-20.67c3.86-7.56,13.11-10.56,20.67-6.71c7.56,3.86,10.56,13.11,6.71,20.67
				C921.9,307.67,912.65,310.67,905.09,306.82z"/>
			<path class="st19" d="M919.13,370.47c-4.06,0-10.39-12.98-10.39-12.98l-16.3,12.12c0,0,5.21,16.21,14.04,26.48"/>
			<line class="st20" x1="910.1" y1="360.08" x2="893.49" y2="372.56"/>
			<g>
				<g>
					<path class="st18" d="M961.28,315.11c-0.87-5.95-3.14-19.97-4.14-20.2c-1-0.23-1.42,3.11-1.01,4.47
						c-0.64-2.55-2.4-8.12-3.46-8.08c-1.44,0.05,0.37,8.07,0.37,8.07s-2.42-8.69-3.66-8.28c-0.88,0.29,0.67,7,0.93,9.64
						c-0.65-2.82-2.43-7.98-3.34-7.66c-0.9,0.32,0.23,5.62,0.78,9.18c-0.55-2.19-1.85-6.95-2.7-6.7
						c-0.85,0.25,1.36,11.25,2.68,22.22"/>
				</g>
				<path class="st18" d="M958.47,371.06c0,0,3.61-12.98,4.73-27.57c1.12-14.59-2.7-32.63-2.7-32.63l-13.04,4.63
					c0,0,3.85,25.44-7.02,53.3"/>
			</g>
			<path class="st19" d="M919.13,370.47c0,0,0.79,2.28,5.29,2.51c5.79,0.3,9.01-2.51,9.01-2.51s17.26,2.29,18.66,21.15
				c1.61,21.72,2.05,52.23,2.05,52.23H900.3c0,0,0.36-34.84,1.49-51.47C902.88,376.45,919.13,370.47,919.13,370.47z"/>
			<path class="st19" d="M952.04,394c6.49-16.88,8.8-29.76,8.8-29.76l-17.28-8.37c0,0-4.11,11.47-10.13,14.59"/>
			<line class="st20" x1="942.16" y1="359.19" x2="960.1" y2="367.77"/>
			<line class="st20" x1="900.3" y1="440.87" x2="954.08" y2="440.87"/>
			<path class="st20" d="M952.51,392.76c0,0-2.19,4.69-2.42,7.05"/>
			<path class="st20" d="M905.78,380.36c0,0-3.27,5.54-3.99,12.02"/>
			<path class="st20" d="M917.08,369.61c0,0,0.92,6.28,7.92,6.28c8.6,0,10.3-6.28,10.3-6.28"/>
			<g>
				<path class="st30" d="M956.13,299.39c-0.01-0.06,0.08,0.1,0.11,0.16l0.13,0.24l0.22,0.49c0.15,0.33,0.26,0.66,0.37,1
					c0.21,0.68,0.37,1.36,0.44,2.09c-0.22-0.3-0.38-0.62-0.53-0.94c-0.16-0.32-0.27-0.66-0.38-1c-0.1-0.34-0.2-0.68-0.26-1.04
					l-0.09-0.53l-0.02-0.27l-0.01-0.14C956.1,299.42,956.12,299.28,956.13,299.39z"/>
			</g>
		</g>
	</g>
	<g>
		<g>
			<g>
				<g>
					<path class="st18" d="M828.8,548.63l0.94,29.62l-0.96,9.32l-35.31-0.19c-0.89,0-1.61-0.73-1.61-1.62l0,0
						c0-0.67,0.42-1.27,1.04-1.5l15.75-7.24l-2.38-30.82"/>
					<path class="st31" d="M790.26,586.99c0.37-1.17,1.06-2.48,1.75-2.78l16.7-7.19c9.21,3.73,21.12,0.88,21.12,0.88l0.91,12.58
						c0,0.42-0.34,0.75-0.76,0.75l-39.45-0.21C789.72,591.01,790.24,587.03,790.26,586.99z"/>
					<path class="st22" d="M805.09,577.73c0.94,1.22,1.73,2.55,2.35,3.95"/>
					<path class="st22" d="M802.99,578.99c0.97,1.34,1.36,2.12,1.94,3.36"/>
					<path class="st22" d="M801.21,579.91c0.66,0.88,1.3,2.11,1.82,3.09"/>
				</g>
				<line class="st22" x1="830.53" y1="588.5" x2="790.08" y2="588.29"/>
				<path class="st22" d="M830.17,582.49c0,0-9.37,0.07-10.21,5.96"/>
				<path class="st22" d="M795.43,582.73c0,0,2.7,3.83,3.23,5.6"/>
			</g>
			<path class="st32" d="M824.7,432.25c0,0,4.3,7.24,5.54,12.63c1.97,8.58,0,17.36,0,17.36l-0.09,103.54h-26.22
				c0,0-5.82-119.32-3.23-134.75"/>
			<path class="st22" d="M807.93,565.79c0,0-5.82-119.32-3.23-134.75"/>
			<g>
				<g>
					<path class="st18" d="M799.84,536.97l11.91,27.13l2.58,9L781.5,586.1c-0.83,0.33-1.77-0.08-2.1-0.91l0,0
						c-0.25-0.62-0.08-1.33,0.41-1.78l11.92-12.59l-13.69-27.71"/>
					<path class="st21" d="M778.38,586.93c-0.09-1.22,0.06-2.7,0.59-3.23l12.82-12.9c9.93,0.03,19.93-7.06,19.93-7.06l5.53,11.33
						c0.15,0.39-0.04,0.82-0.42,0.98l-36.69,14.51C779.38,590.86,778.38,586.97,778.38,586.93z"/>
					<path class="st22" d="M788.7,572.81c1.32,0.78,2.55,1.72,3.66,2.79"/>
					<path class="st22" d="M787.21,574.76c1.4,0.88,2.05,1.46,3.05,2.4"/>
					<path class="st22" d="M785.91,576.27c0.94,0.58,2,1.47,2.83,2.19"/>
				</g>
				<line class="st22" x1="816.31" y1="573.32" x2="778.7" y2="588.2"/>
				<path class="st22" d="M813.73,567.87c0,0-8.67,3.55-7.25,9.34"/>
				<path class="st22" d="M781.59,581.05c0,0,3.93,2.55,5.09,3.99"/>
			</g>
			<path class="st21" d="M779.5,449.13c-13.47,33.11-13.71,36.61-15.93,52.77c-2.28,16.58,22.63,65.39,22.63,65.39l23.9-10.55
				c0,0-15.85-44.66-14.83-52.34c1.89-14.13,18.19-38.23,18.19-38.23s7.74-6.13,9.43-14.27c1.68-8.14-2.02-16.67-2.02-16.67"/>
			<path class="st22" d="M804.08,453.03c0.35-0.12,10.73-3.38,10.73-3.38"/>
			<line class="st22" x1="826.96" y1="446.61" x2="830.38" y2="445.53"/>
			<path class="st22" d="M787.5,448.13c0,0-16.65,36.19-18.93,52.77c-2.28,16.58,21.95,64.03,21.95,64.03"/>
			<path class="st22" d="M800.82,488.48c5.17-11.38,12.65-22.32,12.65-22.32s7.74-6.13,9.43-14.27"/>
		</g>
		<g>
			<path class="st18" d="M777.24,367.2l6.85,11.93c0,0-4.11,8.89-15.21,4.67l-2.85-6.3L777.24,367.2z"/>
			<path class="st18" d="M759.03,359.13c0,0-3.37,15.86,2.5,18.69c3.05,1.47,11.59,0.56,13.61-2.69c1.5-2.42,0.91-13.86-0.92-15.24
				C767.22,354.58,759.03,359.13,759.03,359.13z"/>
			<g>
				<path class="st27" d="M773.9,354.43c-2.57-4.48-7.79-3.59-16.29,1.25c-1.14,0.65-3.61,0.88-3.64,2.19
					c-0.04,1.72,1.2,4.55,3.19,5.12c1.33,0.38,2.03,0.26,3.38-0.06c1.77-0.41,4.13,0.3,4.1,2.38c-0.01,0.54-0.17,1.54,0.34,1.74
					c0.26,0.1,0.92,0.02,1.2,0.03c0.8,0.03,1.23,1,1.13,1.79c-0.1,0.79,0.4,1.37,0.3,2.16c-0.24,1.87,2.15,3.92,4.03,4.07
					c1.66,0.13,6.52-0.68,8.82-3.81c2-2.71,1.74-7.29-1.59-14.11C777.59,354.57,774.79,353.77,773.9,354.43z"/>
			</g>
			<path class="st18" d="M764.48,367.76c0.54-2.54,1.85-2.82,2.99-2.13c1.51,0.92,1.18,4.54,0.62,5.41
				c-1.13,1.76-2.49,2.3-3.25,1.05"/>
			<path class="st33" d="M766.57,378.48c1.75-1.45,1.49-4.23,1.49-4.23"/>
			<g>
				<g>
					<path class="st34" d="M759.54,366.71c-0.24,0.55-0.32,1.36,0.13,1.71c0.13,0.1,0.28,0.1,0.42,0.01
						C760.97,367.88,760.05,365.57,759.54,366.71z"/>
				</g>
			</g>
			<path class="st35" d="M758.82,364.96c0.68-0.08,1.87-0.02,2.58,0.54"/>
			<path class="st4" d="M761.75,372.55l-2.56-0.09c0,0-0.1,3.15,1.1,3.21C761.62,375.74,761.75,372.55,761.75,372.55z"/>
		</g>
		<g>
			<path class="st5" d="M782.51,376.37c0,0,5.97-1.53,14.42,0.93c7.13,2.08,16.2,7.42,23.03,14.68
				c11.82,12.57,6.37,43.82,6.37,43.82l-15.37-0.58c0,0,2.41-20.08-5.64-28.13c-8.05-8.05-19.41-9.94-19.41-9.94"/>
			<g>
				<path class="st18" d="M717.29,420.26c-4.82,1.34-19.41,2.92-19.64,3.92c-0.23,1,4.91,0.51,4.56,1.29
					c-0.35,0.78-8.2,2.07-8.17,3.13c0.04,1.43,8.02-0.32,8.02-0.32s-3.31,0.59-2.92,1.83c0.28,0.87,1.63,1.14,4.25,0.89
					c-1.44,0.32-2,1.02-1.69,1.92c0.31,0.89,1.7,0.83,3.18,0.64c-1.02,0.23-1.8,0.9-1.14,1.49c0.86,0.77,6.81,0.44,17.36-1.35"/>
			</g>
			<path class="st5" d="M767.32,380.36c0,0,4.11,1.77,8.66,0c4.55-1.77,6.52-3.99,6.52-3.99s10.33-0.71,22.91,11.87
				c12.7,12.7,22.58,48.73,22.58,48.73l-52.06,17.5c0,0-8.9-31.54-12.41-45.9C760.02,394.19,767.32,380.36,767.32,380.36z"/>
			<path class="st36" d="M804.73,384.93c10.41,12.15,23.26,52.03,23.26,52.03"/>
			<path class="st5" d="M767.32,380.36c-6.86,2.63-12.75,9.28-16.36,16.14c-5.92,11.23-9.53,19.38-9.53,19.38l-29.85,4.47
				l1.48,15.92c0,0,20.26-0.6,36.42-3.03c11.48-1.73,20.36-25.51,20.36-25.51"/>
			<path class="st36" d="M765.31,381.26c0,0,3.3,4.41,11.22,1.44c7.92-2.97,8.2-6.64,8.2-6.64"/>
			<line class="st36" x1="766.03" y1="415.91" x2="769.28" y2="409.06"/>
			<line class="st36" x1="716.25" y1="419.65" x2="717.37" y2="436.05"/>
			<line class="st36" x1="774.97" y1="451.06" x2="826.96" y2="433.87"/>
		</g>
	</g>
	<g>
		<g>
			<path class="st18" d="M570.21,407.48c0.23,0.15,0.47,0.31,0.71,0.46c2.33,1.48,4.71,2.97,7.35,3.75
				c1.54,0.45,3.21,0.69,4.46,1.69c0.51,0.4,0.94,0.83,1.5,1.16c0.15,0.09,1.62,0.64,1.56,0.48c0.22,0.53,0.8,0.79,1.33,1
				c0.06,0.02,0.13,0.05,0.19,0.04s0.12-0.08,0.1-0.14c0.19,0.37,0.86,0.54,1.08,0.33c0.21-0.2-0.32-1.14-0.32-1.14
				s0.36,0.02,0.47-0.09c0.17-0.19,0.21-0.47,0.23-0.73c0.16-2.41-0.78-4.87-2.53-6.58"/>
		</g>
		<g>
			<g>
				<path class="st37" d="M586.83,412.46c0,0.41,0.24,0.83,0.4,1.21c0.17,0.41,0.35,0.8,0.56,1.2c0.1,0.18,0.35,0.05,0.31-0.13
					c-0.09-0.47-0.25-0.9-0.46-1.34c-0.17-0.36-0.35-0.78-0.69-1C586.9,412.35,586.83,412.4,586.83,412.46L586.83,412.46z"/>
			</g>
		</g>
		<g>
			<g>
				<path class="st37" d="M584.32,412.54c0.89,0.97,1.78,1.89,2.56,2.95c0.08,0.11,0.29,0.05,0.24-0.1
					c-0.38-1.31-1.69-2.11-2.63-3.02C584.38,412.26,584.22,412.43,584.32,412.54L584.32,412.54z"/>
			</g>
		</g>
		<g>
			<line class="st38" x1="568.21" y1="591.22" x2="550.44" y2="409.87"/>
			<polyline class="st38" points="637.38,591.22 619.62,409.87 550.44,409.87 			"/>
			<line class="st38" x1="601.85" y1="591.22" x2="619.62" y2="409.87"/>
			<polyline class="st38" points="532.67,591.22 550.44,409.87 619.62,409.87 			"/>
			<line class="st38" x1="634.54" y1="565.53" x2="535.19" y2="565.53"/>
			<line class="st38" x1="632.23" y1="543.32" x2="537.37" y2="543.32"/>
			<line class="st38" x1="630.46" y1="520.5" x2="539.6" y2="520.5"/>
			<line class="st38" x1="628.24" y1="498.76" x2="541.73" y2="498.76"/>
			<line class="st38" x1="626.1" y1="476.04" x2="543.86" y2="476.04"/>
			<line class="st38" x1="623.89" y1="453.52" x2="546.09" y2="453.52"/>
			<line class="st38" x1="621.31" y1="432.26" x2="548.25" y2="432.26"/>
		</g>
		<g>
			<path class="st18" d="M566.35,409.41c7.1,0.02,14.2,0.01,21.29-0.05c-0.67-1.2-1.09-1.95-1.85-2.71
				c-0.94-0.93-1.66-1.48-2.64-1.98c-3.3-1.69-7-2.6-10.71-2.64"/>
		</g>
		<path class="st39" d="M541.57,360.48c0,0,9.71,25.31,12.13,27.43c2.43,2.12,25.55,13.62,25.55,13.62l-7.09,15
			c0,0-27.82-11.11-31.81-15c-3.99-3.89-16.67-18.95-17.94-34.06"/>
		<g>
			<g>
				<g>
					<path class="st18" d="M523.03,525.88l-1,27.23l0.84,8.57l32.48-0.01c0.82,0,1.48-0.67,1.48-1.49l0,0
						c0-0.61-0.38-1.17-0.95-1.39l-14.45-6.73l2.33-28.33"/>
					<path class="st19" d="M558.3,561.33c-0.34-1.08-0.96-2.29-1.6-2.57l-15.33-6.69c-8.48,3.39-19.43,0.71-19.43,0.71l-0.9,11.56
						c0,0.38,0.31,0.69,0.69,0.69l36.28-0.01C558.78,565.03,558.32,561.37,558.3,561.33z"/>
					<path class="st20" d="M544.7,552.75c-0.87,1.12-1.6,2.34-2.18,3.63"/>
					<path class="st20" d="M546.63,553.92c-0.9,1.23-1.26,1.94-1.8,3.08"/>
					<path class="st20" d="M548.26,554.77c-0.61,0.81-1.21,1.93-1.68,2.83"/>
				</g>
				<line class="st20" x1="521.26" y1="562.54" x2="558.46" y2="562.53"/>
				<path class="st20" d="M521.62,557.01c0,0,8.61,0.1,9.36,5.53"/>
				<path class="st20" d="M553.57,557.4c0,0-2.5,3.51-3,5.14"/>
			</g>
			<path class="st5" d="M515.86,423.5c0,0-3.13,13.88,3.6,30.7c0,0,3.26,17.58,3.52,37.68c0.27,20.5-2.46,46.62-2.46,56.38h26.72
				c0,0,3.28-27.78,3.57-55.78c0.33-31.36-2.33-66.76-2.33-75.9"/>
			<path class="st36" d="M543.24,548.26c0,0,3.28-28.29,3.58-56.65c0.32-31.15-2.34-65.98-2.34-75.04"/>
			<g>
				<g>
					<path class="st18" d="M568.2,503.72l-1,27.24l0.84,8.57l32.48-0.01c0.82,0,1.48-0.67,1.48-1.49l0,0c0-0.61-0.38-1.17-0.95-1.39
						l-14.45-6.73l2.33-28.33"/>
					<path class="st19" d="M603.47,539.17c-0.34-1.08-0.96-2.29-1.6-2.57l-15.33-6.69c-8.48,3.39-19.43,0.71-19.43,0.71l-0.9,11.56
						c0,0.38,0.31,0.69,0.69,0.69l36.28-0.01C603.95,542.86,603.49,539.2,603.47,539.17z"/>
					<path class="st20" d="M589.87,530.59c-0.87,1.12-1.6,2.34-2.18,3.63"/>
					<path class="st20" d="M591.8,531.75c-0.9,1.23-1.26,1.94-1.8,3.08"/>
					<path class="st20" d="M593.43,532.61c-0.61,0.81-1.21,1.93-1.68,2.83"/>
				</g>
				<line class="st20" x1="566.43" y1="540.38" x2="603.63" y2="540.36"/>
				<path class="st20" d="M566.79,534.85c0,0,8.61,0.1,9.36,5.53"/>
				<path class="st20" d="M598.74,535.23c0,0-2.5,3.51-3,5.14"/>
			</g>
			<path class="st5" d="M560.87,425.02c0,0,25.67,24.33,31.46,40.18c4.03,11.05-1.83,61.47-1.83,61.47h-25.57
				c0,0,3.12-45.9,1.5-50.64c-1.9-5.57-23.91-24.56-23.91-24.56s-9.39-2.1-13.82-12.09c-3.99-9-2.15-19.92-2.15-19.92"/>
			<path class="st36" d="M554.87,425.02c0,0,26.61,28.13,31.46,40.18c3.68,9.15-1.83,61.47-1.83,61.47"/>
			<path class="st36" d="M550.26,458.4c-2.02-1.83-5.51-4.97-6.57-5.91c-0.68-0.6-1.46-1.07-2.32-1.37
				c-2.64-0.92-9.19-3.9-12.67-11.74"/>
			<path class="st36" d="M535.77,433.78c0,0,7.66,0.27,10.86,0"/>
			<line class="st36" x1="515.13" y1="433.78" x2="521.31" y2="433.78"/>
		</g>
		<g>
			<g>
				<g>
					<g>
						<path class="st18" d="M606.75,363.4c2.68-1.22,14.9-6.57,15.19-5.83c0.28,0.71-3.59,3.29-3.16,3.41
							c0.24,0.07,3.69-0.83,5.42-1.68c1.54-0.76,4.14-1.72,4.56-1.09c0.79,1.19-7.72,5.24-7.72,5.24s1.5-0.69,2.27,0.24
							c1.1,1.34-1.23,2.58-1.23,2.58s1.34-0.68,1.78,0.48c0.46,1.2-1.54,2.18-1.54,2.18s1.59-0.76,1.79,0.69
							c0.26,1.91-12.44,6.39-12.44,6.39"/>
					</g>
				</g>
			</g>
			<path class="st19" d="M544.84,351.04c0,0-2.55,2.03-6.63,1.33c-4.08-0.69-5.07-2.66-5.07-2.66s-10.85,1.51-16.06,34.96
				c-3.66,23.5-2.45,42.62-2.45,42.62h49.45c0,0,1.51-51.11-1-60.61"/>
			<path class="st19" d="M548.73,375.63c0,0,14.65,16.18,28.32,16.18c13.67,0,39.4-14.51,39.4-14.51l-6.15-16.87l-29.9,10.72
				c0,0-15.74-14.71-23.01-17.42c-7.26-2.71-12.56-2.69-12.56-2.69"/>
			<path class="st20" d="M564.48,388.09c0,0-9.2-7.02-13.64-10.31"/>
			<line class="st20" x1="607.44" y1="361.46" x2="613.07" y2="379.12"/>
			<line class="st20" x1="514.48" y1="423.18" x2="564.19" y2="423.18"/>
			<path class="st20" d="M555.75,381.46c0.48,14.22,0,45.83,0,45.83"/>
		</g>
		<g>
			<path class="st18" d="M533.32,342.42l-1.12,9.03c0,0,8.71,4.57,14.49-0.29v-5.26L533.32,342.42z"/>
			<path class="st18" d="M545.14,328.26c0,0,10.18,12.84,6.46,17.59c-1.93,2.47-8.25,1.88-11.26,0c-2.23-1.4-8.47-8.84-7.51-10.75
				C536.47,327.83,545.14,328.26,545.14,328.26z"/>
			<path class="st25" d="M543.83,330.61c0.17,5.2-0.5,9.85-0.5,9.85l-0.78,16.89c0,0-13.44,1.43-22.03-4.54
				c0,0,2.88-17.75,9.29-23.13c6.09-5.12,14.02-4.75,18.05-1.44c0,0-0.56,1.55-1.31,1.91C545.8,330.52,543.83,330.61,543.83,330.61"
				/>
			<path class="st18" d="M544.71,338.76c-1.24-1.58-2.25-1.33-2.8-0.46c-0.73,1.15,0.74,3.55,1.42,3.96
				c1.39,0.83,2.51,0.74,2.62-0.38"/>
			<path class="st33" d="M546.8,347.43c-1.47,0-1.94-1.23-1.94-1.23"/>
			<g>
				<g>
					<path class="st34" d="M547.82,334.77c0.43,0.35,0.83,1,0.59,1.47c-0.07,0.13-0.2,0.2-0.34,0.18
						C547.11,336.33,546.93,334.03,547.82,334.77z"/>
				</g>
			</g>
			<path class="st40" d="M547.7,333.02c-0.96,0-1.56,0.75-1.92,1.51"/>
			<path class="st4" d="M548.6,341.4l2.26-0.73c0,0,0.89,2.78-0.17,3.14C549.52,344.21,548.6,341.4,548.6,341.4z"/>
			<g>
				<path class="st25" d="M536.27,326.66c0.9-0.23,1.52-1.17,1.5-2.09c-0.03-0.93-0.63-1.79-1.45-2.22
					c-0.82-0.44-1.81-0.48-2.7-0.23c-0.34,0.09-0.67,0.23-0.96,0.44c-1.16,0.86-1.13,2.71-0.31,3.9c0.34,0.48,0.8,0.91,1.38,1.04
					c0.57,0.13,1.76-0.07,2.44-0.47"/>
			</g>
		</g>
		<path class="st18" d="M548.9,334.62c0.25,0.14,2.94,1.3,2.95,2.38c0.01,0.61-1.48,1.27-1.48,1.27"/>
		<g>
			<path class="st18" d="M584.16,407.29c1.6,1.72,2.13,3.42,2.78,4.81c0.03,0.06,0.06,0.13,0.06,0.2c0.01,0.32-0.47,0.35-0.77,0.23
				c-0.68-0.26-1.31-0.63-1.87-1.11c-0.22-0.19-0.43-0.39-0.68-0.54c-0.46-0.26-1-0.29-1.53-0.36c-2.15-0.27-4.31-1.33-5.36-3.23"/>
		</g>
		<g>
			<path class="st41" d="M584.16,407.29c1.1,1.02,1.89,2.34,2.5,3.7l0.47,1c0.03,0.12,0.11,0.23,0.08,0.4
				c-0.03,0.19-0.2,0.32-0.32,0.36c-0.26,0.09-0.47,0.06-0.7,0c-0.74-0.27-1.41-0.66-2-1.16c-0.29-0.26-0.52-0.49-0.83-0.61
				c-0.3-0.12-0.66-0.17-1.03-0.22c-0.75-0.09-1.5-0.26-2.21-0.55c-1.4-0.56-2.69-1.56-3.32-2.93c0.81,1.26,2.09,2.1,3.46,2.57
				c0.69,0.22,1.4,0.39,2.12,0.46c0.37,0.04,0.76,0.08,1.15,0.22c0.4,0.15,0.71,0.45,0.98,0.67c0.53,0.47,1.16,0.85,1.82,1.1
				c0.13,0.05,0.3,0.06,0.4,0.02c0.05-0.02,0.05-0.03,0.05-0.03c0.01-0.01-0.03-0.08-0.04-0.13c-0.16-0.34-0.29-0.69-0.43-1.03
				C585.77,409.77,585.1,408.45,584.16,407.29z"/>
		</g>
	</g>
	<g>
		<g>
			<g>
				<g>
					<path class="st18" d="M413.83,550.18l-0.9,28.54l0.93,8.98l34.03-0.18c0.86,0,1.55-0.7,1.55-1.56l0,0c0-0.64-0.4-1.22-1-1.45
						l-15.18-6.98l2.29-29.7"/>
					<path class="st31" d="M450.96,587.14c-0.36-1.13-1.02-2.39-1.69-2.68l-16.1-6.93c-8.87,3.6-20.36,0.85-20.36,0.85l-0.88,12.12
						c0,0.4,0.33,0.72,0.73,0.72l38.02-0.2C451.48,591.01,450.98,587.18,450.96,587.14z"/>
					<path class="st42" d="M436.67,578.22c-0.9,1.18-1.66,2.46-2.27,3.81"/>
					<path class="st42" d="M438.69,579.44c-0.93,1.29-1.31,2.04-1.87,3.24"/>
					<path class="st42" d="M440.41,580.32c-0.63,0.85-1.26,2.03-1.75,2.97"/>
				</g>
				<line class="st42" x1="412.16" y1="588.6" x2="451.13" y2="588.4"/>
				<path class="st42" d="M412.51,582.8c0,0,9.03,0.06,9.84,5.74"/>
				<path class="st42" d="M445.98,583.04c0,0-2.6,3.7-3.11,5.4"/>
			</g>
			<path class="st5" d="M416.98,448.04c0,0,18.08,33.89,23.82,55.21c5.74,21.31-1.89,69.32-1.89,69.32h-28.14
				c0,0,5.61-52.1-1.03-69.32c-6.64-17.22-30.42-62.52-30.42-62.52"/>
			<path class="st36" d="M414.62,572.57c0,0,4.61-54.2,1.81-67.59c-2.81-13.39-22.26-44.55-22.26-44.55"/>
			<g>
				<g>
					<path class="st18" d="M381.59,534.31l-16.63,22.92l-4.53,7.81l27.62,19.87c0.7,0.5,1.67,0.34,2.17-0.35l0,0
						c0.38-0.52,0.39-1.22,0.04-1.76l-8.17-14.57l18.43-24.04"/>
					<path class="st31" d="M390.77,586.42c0.37-1.12,0.58-2.54,0.21-3.16l-8.94-15.07c-9.29-2.31-16.96-11.29-16.96-11.29
						l-7.84,9.28c-0.23,0.33-0.16,0.78,0.17,1.01l30.86,22.2C388.91,589.85,390.76,586.45,390.77,586.42z"/>
					<path class="st42" d="M384.45,570.8c-1.42,0.42-2.79,1.01-4.08,1.75"/>
					<path class="st42" d="M385.38,572.97c-1.52,0.5-2.26,0.88-3.41,1.52"/>
					<path class="st42" d="M386.24,574.69c-1.01,0.32-2.21,0.9-3.16,1.38"/>
				</g>
				<line class="st42" x1="358.52" y1="564.77" x2="390.16" y2="587.53"/>
				<path class="st42" d="M362.22,560.29c0,0,7.26,5.36,4.58,10.43"/>
				<path class="st42" d="M389.15,580.17c0,0-4.28,1.46-5.69,2.53"/>
			</g>
			<path class="st5" d="M371.9,440.73c-5.36,15.19,0,27.14,0,27.14s18.27,33.39,18.27,40.17c0,6.22-23.44,41.68-23.44,41.68
				l21.43,17.23c0,0,33.66-36.23,33.03-61.3c-0.79-31-17.66-64.92-17.66-64.92"/>
			<path class="st36" d="M375.9,441.73c-5.36,15.19,1.11,25.42,1.11,25.42s17.16,35.11,17.16,41.89c0,6.22-24.35,43.16-24.35,43.16"
				/>
			<path class="st36" d="M412.66,533.13c5.02-9.21,8.74-18.99,8.52-27.49c-0.79-31-17.66-64.92-17.66-64.92"/>
			<path class="st36" d="M374.14,453.64c0,0,9.56,0.56,13.31-7.13"/>
			<path class="st36" d="M410.79,458.02c0,0,2.62,0.29,2.37-1.01c-0.25-1.3-2.37-8.28-2.37-8.28"/>
		</g>
		<g>
			<path class="st43" d="M422.94,360.16c0.98,6.12,0.21,11.53-5.02,12.35c-5.23,0.81-12.49-0.68-13.91-9.4
				c-1-6.12,2.46-11.75,7.69-12.56C416.92,349.73,421.96,354.04,422.94,360.16z"/>
			<g>
				<g>
					<path class="st34" d="M418.71,360.21c-0.11,0.56-0.01,1.34,0.49,1.56c0.14,0.06,0.29,0.03,0.39-0.08
						C420.29,361,418.93,359.04,418.71,360.21z"/>
				</g>
			</g>
			<path class="st44" d="M416.96,358.83c1.29-0.7,2.52-0.63,3.61-0.25"/>
			<path class="st4" d="M422.1,366.56l-3.41,0.01c0,0-0.2,2.83,1.49,3.13C421.6,369.94,422.1,366.56,422.1,366.56z"/>
			<g>
				<path class="st43" d="M415.15,379.21c0,0-4.07,0.7-7.9-0.34c-4.52-1.23-5.8-3.07-5.8-3.07l6.26-13.07l9.66,4.38L415.15,379.21z"
					/>
			</g>
			<path class="st24" d="M416.35,372.66c0,0-4.21,0.14-6.39-1.93"/>
			<path class="st43" d="M421.83,359.97c0,0,2.61,3.84,2.48,4.52c-0.13,0.68-2.03,0.98-2.03,0.98"/>
			<g>
				<path class="st45" d="M407.76,368.63c-0.57,0.25-1.25,0.35-1.8,0.41c-1.23,0.14-2.5-0.05-3.6-0.62
					c-2.01-1.05-3.3-3.44-2.85-5.67c0.07-0.36,0.19-0.72,0.25-1.09c0.27-1.71-0.73-3.34-1.01-5.05c-0.27-1.66,0.16-3.4,1.1-4.8
					c0.93-1.4,2.34-2.45,3.91-3.05c1.25-0.48,2.62-0.65,3.66-1.55c0.48-0.42,0.92-0.89,1.46-1.23c2.6-1.64,6.31-0.74,8.63,0.99
					c0.28,0.2,0.55,0.43,0.88,0.52c0.57,0.15,1.17-0.09,1.75,0.03c2.23,0.45,3.21,3.74,3.19,5.71c-0.01,0.58-0.15,1.18-0.5,1.64
					c-0.5,0.67-1.35,0.99-2.18,1.09c-1.16,0.14-2.36-0.09-3.5,0.25c-0.8,0.24-1.48,0.76-2.26,1.07c-1.19,0.48-2.59,0.43-3.75-0.12
					c0.23,0.81,0.4,1.67,0.28,2.51c-0.24,1.57-1.57,2.35-2.98,2.74c0.47,1.59,0.85,3.58,0.35,5.2
					C408.65,368.1,408.25,368.42,407.76,368.63z"/>
			</g>
			<path class="st23" d="M409.7,361.12c0,0-1.25-1.52-2.72-0.3c-1.9,1.58,0.57,4.99,2.08,5.55c1.5,0.56,1.95-1.11,1.95-1.11"/>
		</g>
		<g>
			<path class="st5" d="M480.75,427.79c1.98-1.67,3.8-3.58,5.4-5.75c1.6-2.17,2.9-4.47,3.91-6.85l-6.33-3.38
				c0.88-2.23,1.45-4.54,1.7-6.87l7.18-0.03c0.45-5.27-0.35-10.59-2.33-15.5l-6.87,2.08c-0.93-2.15-2.14-4.19-3.64-6.06l5.05-5.09
				c-1.67-1.98-3.58-3.8-5.75-5.4c-2.17-1.6-4.47-2.9-6.85-3.91l-3.38,6.33c-2.23-0.88-4.54-1.45-6.87-1.7l-0.03-7.18
				c-5.27-0.45-10.59,0.35-15.5,2.33l2.08,6.87c-2.15,0.93-4.19,2.14-6.06,3.64l-5.09-5.05c-1.98,1.67-3.8,3.58-5.4,5.75
				c-1.6,2.17-2.9,4.47-3.91,6.85l6.33,3.38c-0.88,2.23-1.45,4.54-1.7,6.87l-7.18,0.03c-0.45,5.27,0.35,10.59,2.33,15.5l6.87-2.08
				c0.93,2.15,2.14,4.19,3.64,6.06l-5.05,5.09c1.67,1.98,3.58,3.8,5.75,5.4c2.17,1.6,4.47,2.9,6.85,3.91l3.38-6.33
				c2.23,0.88,4.54,1.45,6.87,1.7l0.03,7.18c5.27,0.45,10.59-0.35,15.5-2.33l-2.08-6.87c2.15-0.93,4.19-2.14,6.06-3.64
				L480.75,427.79z M451.51,412.25c-5.64-4.17-6.84-12.12-2.67-17.76c4.17-5.64,12.12-6.84,17.76-2.67
				c5.64,4.17,6.84,12.12,2.67,17.76C465.1,415.22,457.15,416.41,451.51,412.25z"/>
			<g>
				<g>
					<g>
						<path class="st18" d="M460.96,426.24c2.94,0.25,16.21,1.6,16.09,2.39c-0.11,0.76-4.6,1.01-4.43,1.42
							c0.24,0.58,3.62,1.09,5.55,1.2c1.71,0.1,4.45,0.54,4.5,1.29c0.1,1.43-9.3,0.77-9.3,0.77c0.03,0.43,10.24-1.18,10.45,0.01
							c0.3,1.71-10.58,2.55-10.93,2.96c0,0,9.23-3.35,9.46-2.08c0.22,1.27-7.95,4.46-10.55,4.51c2.13-0.44,8.41-3.98,8.57-3.05
							c0.16,0.92-5.39,3.33-6.29,3.48c-7.43,1.23-15.03,0.5-15.03,0.5"/>
					</g>
				</g>
			</g>
			<path class="st21" d="M415.31,378.37c0,0-2.85,1.35-7.17-0.52c-4.69-2.04-5.68-4.38-5.68-4.38s-25.44,2.25-34.74,72.83
				l52.09,6.46c0,0,4.19-25.23,3.52-45.64C422.91,394.12,417.86,384.01,415.31,378.37"/>
			<path class="st21" d="M400.03,406.63c0,0,8.01,26.84,29.65,32.65c19.28,5.17,34.31,5.15,34.31,5.15l2.1-18.09
				c0,0-23.56-4.23-33.26-10.64c-7.38-4.88-8.82-20.53-10.69-26.06c-2.59-7.68-6.83-11.25-6.83-11.25"/>
			<path class="st22" d="M400.39,374.02c0,0,1.6,4.92,9.02,6.54c5.42,1.18,7.55-0.44,7.55-0.44"/>
			<path class="st22" d="M421.18,436.23c0,0-19.73-9.11-20.79-34.93"/>
			<line class="st22" x1="461.71" y1="425.45" x2="459.06" y2="444.21"/>
		</g>
	</g>
</g>
</svg>
